<?xml version="1.0" encoding="utf-8"?>
<!-- Generator: Adobe Illustrator 19.0.0, SVG Export Plug-In . SVG Version: 6.00 Build 0)  -->
<svg version="1.1" id="Layer_1" xmlns="http://www.w3.org/2000/svg" xmlns:xlink="http://www.w3.org/1999/xlink" x="0px" y="0px"
	 width="959.3px" height="119.5px" viewBox="0 0 959.3 119.5" style="enable-background:new 0 0 959.3 119.5;" xml:space="preserve"
	>
<style type="text/css">
	.st0{fill:#FFFFFF;stroke:#FFFFFF;stroke-miterlimit:10;}
</style>
<g id="XMLID_67_">
	<path id="XMLID_68_" class="st0" d="M104.9,18.6h10.8L85.1,94.8h-2.4L57.9,33.1l-25,61.6h-2.3L0,18.6h10.9l20.9,52.3l21-52.3h10.3
		l21.1,52.3L104.9,18.6z"/>
	<path id="XMLID_70_" class="st0" d="M165.2,17.5c11.7,0,21.5,3.7,29.3,11.1c7.8,7.4,11.7,16.7,11.7,27.9c0,11.2-3.9,20.4-11.8,27.8
		c-7.9,7.3-17.8,11-29.7,11c-11.4,0-20.9-3.7-28.6-11c-7.6-7.3-11.4-16.5-11.4-27.5c0-11.3,3.8-20.7,11.5-28.1
		C143.8,21.2,153.5,17.5,165.2,17.5z M165.7,27.8c-8.7,0-15.8,2.7-21.4,8.1c-5.6,5.4-8.4,12.4-8.4,20.8c0,8.2,2.8,15,8.4,20.4
		c5.6,5.4,12.6,8.1,21,8.1c8.5,0,15.5-2.8,21.2-8.3c5.7-5.5,8.5-12.4,8.5-20.7c0-8-2.8-14.8-8.5-20.3
		C180.9,30.6,173.9,27.8,165.7,27.8z"/>
	<path id="XMLID_73_" class="st0" d="M227.9,18.6h10.9v65.9h34.1v9.9h-45V18.6z"/>
	<path id="XMLID_75_" class="st0" d="M291,94.4V18.6h19c7.7,0,13.8,1.9,18.3,5.7c4.5,3.8,6.8,8.9,6.8,15.4c0,4.4-1.1,8.2-3.3,11.5
		c-2.2,3.2-5.4,5.6-9.5,7.2c2.4,1.6,4.8,3.8,7.1,6.5c2.3,2.8,5.6,7.5,9.8,14.4c2.6,4.3,4.8,7.5,6.3,9.7l4,5.4h-12.9l-3.3-5
		c-0.1-0.2-0.3-0.5-0.7-0.9l-2.1-3l-3.4-5.5l-3.6-5.9c-2.2-3.1-4.3-5.6-6.2-7.4c-1.9-1.8-3.5-3.2-5.1-4c-1.5-0.8-4-1.2-7.6-1.2h-2.8
		v33H291z M305.1,27.8h-3.3v23.9h4.1c5.5,0,9.3-0.5,11.3-1.4c2-0.9,3.6-2.4,4.8-4.3s1.7-4.1,1.7-6.5c0-2.4-0.6-4.5-1.9-6.5
		c-1.3-1.9-3-3.3-5.3-4.1C314.2,28.2,310.4,27.8,305.1,27.8z"/>
	<path id="XMLID_78_" class="st0" d="M366.3,94.3V18.6h25.6c10.3,0,18.5,1.5,24.5,4.6c6,3.1,10.8,7.6,14.3,13.6
		c3.5,6,5.3,12.6,5.3,19.6c0,5.1-1,9.9-2.9,14.5c-2,4.6-4.7,8.7-8.4,12.2c-3.7,3.6-8,6.3-12.9,8.2c-2.9,1.1-5.5,1.9-7.9,2.3
		c-2.4,0.4-6.9,0.6-13.7,0.6H366.3z M390.7,28.3h-13.6v56.4H391c5.4,0,9.6-0.4,12.6-1.1c3-0.7,5.5-1.7,7.5-2.8s3.8-2.5,5.5-4.2
		c5.4-5.4,8-12.3,8-20.6c0-8.1-2.8-14.8-8.2-19.9c-2-1.9-4.3-3.5-7-4.7c-2.6-1.2-5.1-2-7.5-2.4C399.7,28.5,395.9,28.3,390.7,28.3z"
		/>
	<path id="XMLID_81_" class="st0" d="M497.2,18.6H508v75.8h-10.9V18.6z"/>
	<path id="XMLID_83_" class="st0" d="M593.4,18.6h10.3v75.8h-9.3L543.7,36v58.4h-10.2V18.6h8.8l51.1,58.9V18.6z"/>
	<path id="XMLID_85_" class="st0" d="M732.8,76.8v11.9c-8,4.3-17.1,6.5-27.6,6.5c-8.5,0-15.6-1.7-21.5-5.1s-10.6-8.1-14-14.1
		c-3.4-6-5.2-12.4-5.2-19.4c0-11,3.9-20.3,11.8-27.8c7.9-7.5,17.6-11.3,29.1-11.3c8,0,16.8,2.1,26.5,6.2v11.7
		c-8.9-5.1-17.5-7.6-26-7.6c-8.7,0-15.9,2.7-21.6,8.2c-5.7,5.5-8.6,12.3-8.6,20.6c0,8.3,2.8,15.2,8.5,20.5s12.9,8,21.7,8
		C715.1,85.3,724.1,82.5,732.8,76.8z"/>
	<path id="XMLID_87_" class="st0" d="M807.3,18.6h10.9v43c0,5.8-0.4,10.2-1.3,13.2c-0.9,3-1.9,5.4-3.1,7.4c-1.2,2-2.8,3.7-4.6,5.3
		c-6,5.2-13.9,7.8-23.6,7.8c-9.9,0-17.8-2.6-23.8-7.7c-1.8-1.6-3.3-3.4-4.6-5.3c-1.2-2-2.3-4.4-3.1-7.2c-0.8-2.9-1.2-7.3-1.2-13.5
		V18.6h10.9v43c0,7.1,0.8,12.1,2.4,14.9s4.1,5,7.4,6.7c3.3,1.7,7.3,2.5,11.8,2.5c6.4,0,11.7-1.7,15.7-5c2.1-1.8,3.7-3.9,4.6-6.4
		c0.9-2.5,1.4-6.7,1.4-12.6V18.6z"/>
	<path id="XMLID_89_" class="st0" d="M867.2,94.4h-25.7V18.6h19.9c6.3,0,11.1,0.8,14.7,2.5c3.5,1.7,6.2,4,8,6.9
		c1.8,2.9,2.8,6.4,2.8,10.2c0,7.5-3.9,12.8-11.6,16c5.5,1,9.9,3.3,13.2,6.8c3.3,3.5,4.9,7.7,4.9,12.6c0,3.9-1,7.3-3,10.4
		c-2,3-4.9,5.5-8.8,7.4C877.8,93.5,873,94.4,867.2,94.4z M861.7,28.3h-9.3v22.8h7.2c5.8,0,9.9-1.1,12.3-3.3c2.4-2.2,3.7-5.1,3.7-8.6
		C875.6,31.9,871,28.3,861.7,28.3z M862.5,60.7h-10.1v24h10.7c5.9,0,10-0.5,12.1-1.4s3.8-2.4,5.1-4.3c1.3-2,1.9-4.1,1.9-6.3
		c0-2.3-0.7-4.4-2-6.3c-1.4-1.9-3.3-3.3-5.8-4.3C871.9,61.2,867.9,60.7,862.5,60.7z"/>
	<path id="XMLID_93_" class="st0" d="M912.4,18.6h43v9.7h-32.1v23.1h31v9.7h-31v23.6h33.2v9.7h-44V18.6z"/>
</g>
</svg>
