<?xml version="1.0" encoding="utf-8"?>
<!-- Generator: Adobe Illustrator 19.0.0, SVG Export Plug-In . SVG Version: 6.00 Build 0)  -->
<svg version="1.1" id="Layer_1" xmlns="http://www.w3.org/2000/svg" xmlns:xlink="http://www.w3.org/1999/xlink" x="0px" y="0px"
	 width="1004.7px" height="119.5px" viewBox="-19 -9.5 1004.7 119.5" style="enable-background:new -19 -9.5 1004.7 119.5;"
	 xml:space="preserve">
<style type="text/css">
	.welcome{fill:#565656;stroke:#565656;stroke-width:4;stroke-miterlimit:10;}
</style>
<path class="welcome" fill="#565656" stroke="#565656" stroke-width="4" stroke-miterlimit="10" d="M-17.3,15.5c-0.5-1.6,0.5-2.7,2-2.7H-2c0.9,0,1.8,0.8,2,1.6l9.7,38.3h0.5l17.5-39.8c0.3-0.7,1-1.2,1.9-1.2h2
	c1,0,1.7,0.6,1.9,1.2l17.5,39.8h0.5l9.7-38.3c0.2-0.8,1.1-1.6,2-1.6h13.2c1.6,0,2.5,1.1,2,2.7l-21.4,76c-0.2,0.9-1.1,1.6-2,1.6h-1.8
	c-0.8,0-1.6-0.6-1.9-1.2L30.8,45.5h-0.3L9.9,91.8C9.5,92.5,8.7,93,7.9,93H6.1c-0.9,0-1.8-0.7-2-1.6L-17.3,15.5z"/>
<path class="welcome" fill="#565656" stroke="#565656" stroke-width="4" stroke-miterlimit="10" d="M136.6,11.6c22.6,0,40.7,18.2,40.7,40.8c0,22.6-18.1,40.6-40.7,40.6S96,75.1,96,52.4
	C96,29.8,114,11.6,136.6,11.6z M136.6,75c12.4,0,22.6-10.2,22.6-22.5c0-12.4-10.2-22.7-22.6-22.7c-12.3,0-22.5,10.3-22.5,22.7
	C114.1,64.8,124.3,75,136.6,75z"/>
<path class="welcome" fill="#565656" stroke="#565656" stroke-width="4" stroke-miterlimit="10" d="M202.4,14.9c0-1.1,0.9-2.1,2.1-2.1h33.8c13.6,0,24.7,11,24.7,24.4c0,10.4-6.9,18.8-16.7,22.7l15.5,28.7
	c0.8,1.5,0,3.3-1.9,3.3h-15c-0.9,0-1.6-0.6-1.8-1l-15-30h-7.8v28.8c0,1.1-1,2.1-2.1,2.1h-13.5c-1.2,0-2.1-1-2.1-2.1V14.9z
	 M236.8,46.6c4.6,0,8.6-4.3,8.6-9s-4-8.6-8.6-8.6h-16.7v17.6H236.8z"/>
<path class="welcome" fill="#565656" stroke="#565656" stroke-width="4" stroke-miterlimit="10" d="M289.4,14.9c0-1.1,0.9-2.1,2.1-2.1H305c1.1,0,2.1,1,2.1,2.1v60.4h26.9c1.2,0,2.1,1,2.1,2.1v12.3
	c0,1.1-0.9,2.1-2.1,2.1h-42.5c-1.2,0-2.1-1-2.1-2.1V14.9z"/>
<path class="welcome" fill="#565656" stroke="#565656" stroke-width="4" stroke-miterlimit="10" d="M358.5,14.9c0-1.1,0.9-2.1,2-2.1h27.6c21.8,0,39.7,17.8,39.7,39.5c0,21.9-17.9,39.7-39.7,39.7h-27.6
	c-1.1,0-2-1-2-2.1V14.9z M387,75.2c12.8,0,22.1-10.1,22.1-23c0-12.8-9.3-22.8-22.1-22.8h-10.9v45.8H387z"/>
<path class="welcome" fill="#565656" stroke="#565656" stroke-width="4" stroke-miterlimit="10" d="M489.3,14.9c0-1.1,1-2.1,2.1-2.1H505c1.1,0,2.1,1,2.1,2.1v74.9c0,1.1-1,2.1-2.1,2.1h-13.6c-1.1,0-2.1-1-2.1-2.1
	V14.9z"/>
<path class="welcome" fill="#565656" stroke="#565656" stroke-width="4" stroke-miterlimit="10" d="M537.8,13.7c0-1.1,1-2,2.1-2h2.8L587.9,55h0.1V14.9c0-1.1,0.9-2.1,2.1-2.1h13.6c1.1,0,2.1,1,2.1,2.1V91
	c0,1.1-1,2-2.1,2h-1.8c-0.3,0-1.2-0.3-1.5-0.6l-44.7-44.9h-0.1v42.2c0,1.1-0.9,2.1-2.1,2.1h-13.5c-1.1,0-2.1-1-2.1-2.1L537.8,13.7z"
	/>
<path class="welcome" fill="#565656" stroke="#565656" stroke-width="4" stroke-miterlimit="10" d="M708,11.6c11.3,0,19.7,3.5,27.4,10.5c1,0.9,1,2.3,0.1,3.2l-8.8,9.2c-0.8,0.8-2,0.8-2.8,0
	c-4.2-3.7-9.7-5.8-15.3-5.8c-12.8,0-22.2,10.6-22.2,23.3c0,12.6,9.5,23,22.3,23c5.3,0,11.1-1.9,15.2-5.4c0.8-0.7,2.3-0.7,2.9,0.1
	l8.8,9.4c0.8,0.8,0.7,2.3-0.1,3.1c-7.7,7.5-17.4,11-27.5,11c-22.6,0-40.8-18-40.8-40.6C667.2,29.8,685.4,11.6,708,11.6z"/>
<path class="welcome" fill="#565656" stroke="#565656" stroke-width="4" stroke-miterlimit="10" d="M759.3,14.9c0-1.1,1-2.1,2.1-2.1h13.9c1.2,0,2.1,1,2.1,2.1v45.8c0,7.9,5.9,14.2,13.9,14.2
	c8.1,0,14.1-6.3,14.1-14.2V14.9c0-1.1,0.9-2.1,2.1-2.1h13.9c1.1,0,2.1,1,2.1,2.1v46.7c0,17.2-14.5,31.4-32.3,31.4
	c-17.8,0-32.1-14.2-32.1-31.4V14.9z"/>
<path class="welcome" fill="#565656" stroke="#565656" stroke-width="4" stroke-miterlimit="10" d="M853.2,14.9c0-1.1,0.9-2.1,2.1-2.1h26.4c13.3,0,24.3,9.2,24.3,21c0,8.7-7.8,15-13.1,17.9
	c6,2.5,15.2,8,15.2,18.4c0,12.7-11.2,21.8-24.7,21.8h-28c-1.2,0-2.1-1-2.1-2.1V14.9z M879.7,44.9c4.3,0,7.9-3.6,7.9-8.1
	c0-4.5-3.6-7.7-7.9-7.7h-8.8v15.8H879.7z M881.2,75.7c4.4,0,8.1-3.6,8.1-8.3c0-4.5-4.9-7.9-9.3-7.9h-9.2v16.2H881.2z"/>
<path class="welcome" fill="#565656" stroke="#565656" stroke-width="4" stroke-miterlimit="10" d="M933.8,14.9c0-1.1,0.9-2.1,2.1-2.1h46.8c1.2,0,2.1,1,2.1,2.1v12.3c0,1.1-0.9,2.1-2.1,2.1h-31.3v14h25.8
	c1.1,0,2.1,1,2.1,2.1v12.3c0,1.2-1,2.1-2.1,2.1h-25.8v15.3h31.3c1.2,0,2.1,1,2.1,2.1v12.3c0,1.1-0.9,2.1-2.1,2.1h-46.8
	c-1.2,0-2.1-1-2.1-2.1V14.9z"/>
</svg>
